<?xml version="1.0" encoding="UTF-8" standalone="no"?>
<svg
   xmlns:dc="http://purl.org/dc/elements/1.1/"
   xmlns:cc="http://creativecommons.org/ns#"
   xmlns:rdf="http://www.w3.org/1999/02/22-rdf-syntax-ns#"
   xmlns:svg="http://www.w3.org/2000/svg"
   xmlns="http://www.w3.org/2000/svg"
   viewBox="0 0 1052.8 816"
   height="816"
   width="1052.8"
   id="svg3680"
   version="1.1">
  <metadata
     id="metadata3686">
    <rdf:RDF>
      <cc:Work
         rdf:about="">
        <dc:format>image/svg+xml</dc:format>
        <dc:type
           rdf:resource="http://purl.org/dc/dcmitype/StillImage" />
        <dc:title></dc:title>
      </cc:Work>
    </rdf:RDF>
  </metadata>
  <defs
     id="defs3684" />
  <path
     id="path3690-0"
     d="m 429.03621,352.99418 0.14956,-88.21413 109.88915,0.19985 109.88915,0.19986 -0.14956,88.21412 -0.14956,88.21412 -109.88915,-0.19985 -109.88915,-0.19985 z m 139.80527,54.18016 c 0.50186,-0.13064 0.96913,-0.3406 1.24994,-0.56163 0.28257,-0.22241 0.50733,-0.70478 2.56222,-5.49902 0.851,-1.98546 2.27223,-5.29714 3.15829,-7.35928 0.98924,-2.3023 1.59486,-3.79313 1.56918,-3.8628 -0.0318,-0.0863 -0.0925,-0.10305 -0.25338,-0.07 -0.3175,0.0652 -0.66112,0.29941 -1.69226,1.15359 -1.84012,1.52432 -2.5302,1.84229 -3.03675,1.39926 -0.16118,-0.14097 -0.20482,-0.23385 -0.20333,-0.43279 0.005,-0.63501 0.63628,-1.40659 1.51794,-1.8546 l 0.51771,-0.26307 0.99998,0.0195 c 0.98524,0.0192 1.00622,0.0165 1.42352,-0.18486 0.3966,-0.19134 1.08921,-0.81328 1.08949,-0.97832 2.4e-4,-0.1429 -0.63659,-0.36223 -1.14498,-0.39434 -0.94999,-0.06 -2.00637,0.31274 -3.10288,1.09488 -0.57129,0.40751 -0.79988,0.6381 -0.44497,0.44889 0.36654,-0.19543 0.4544,-0.0438 0.17397,0.30011 -0.16033,0.19665 -1.39447,1.186 -1.86464,1.4948 l -0.19953,0.13104 0.16554,-0.24185 c 0.091,-0.13303 0.39176,-0.4867 0.66825,-0.78594 l 0.50272,-0.54408 -0.9318,0.63073 c -1.49123,1.00942 -2.9461,1.71876 -3.75615,1.83136 -0.27035,0.0376 -0.34958,0.0261 -0.37939,-0.0547 -0.0599,-0.16256 0.12214,-0.77728 0.65367,-2.20711 0.69835,-1.87861 0.77593,-2.4033 0.35549,-2.40406 -0.2779,-5.1e-4 -1.14705,0.28186 -1.51689,0.4928 -0.49712,0.28354 -2.07262,1.51287 -2.33671,1.82329 -0.23674,0.27828 -0.26207,0.56371 -0.0466,0.52568 0.0692,-0.0122 0.50194,-0.30053 0.96174,-0.64072 0.45981,-0.34019 0.84682,-0.6073 0.86003,-0.59357 0.0132,0.0137 -0.1589,0.38845 -0.38246,0.83272 -0.93173,1.85156 -1.10538,2.98855 -0.49343,3.2308 0.2871,0.11365 1.2891,0.0773 1.87947,-0.0681 0.9104,-0.22431 2.41225,-0.88323 3.23623,-1.41986 0.13996,-0.0912 0.26734,-0.16571 0.28307,-0.16569 0.0157,3e-5 -0.0761,0.21056 -0.20415,0.46785 -0.24327,0.48896 -0.33785,0.92288 -0.26616,1.22096 0.12727,0.52912 1.2214,0.51823 2.35334,-0.0234 0.72208,-0.34553 1.27577,-0.74186 1.90979,-1.36702 0.28805,-0.28404 0.52371,-0.49654 0.52367,-0.4722 -1.2e-4,0.0688 -1.86271,3.89393 -2.83173,5.81534 -1.93451,3.83585 -3.17447,6.12425 -4.29849,7.93306 -0.95141,1.53104 -0.88987,1.41226 -0.80463,1.55308 0.14415,0.23812 0.77518,0.2579 1.57611,0.0494 z m -33.34996,-11.19739 c 1.74665,-0.26537 3.61794,-1.07801 5.24214,-2.2765 0.66807,-0.49297 2.0576,-1.86099 2.61965,-2.5791 1.31767,-1.68353 2.26939,-3.70403 2.67214,-5.67291 0.21069,-1.02996 0.21449,-2.63152 0.008,-3.42478 -0.29731,-1.14292 -0.87815,-2.10737 -1.66683,-2.76771 -0.79518,-0.66578 -1.55942,-1.03197 -2.71108,-1.29904 -0.52178,-0.12101 -1.01765,-0.14974 -3.76258,-0.21801 -2.40017,-0.0597 -3.22462,-0.0592 -3.42327,0.002 -0.62625,0.19309 -1.62892,1.66027 -1.31697,1.92709 0.0515,0.044 1.35803,0.0983 3.45612,0.14359 3.30631,0.0714 3.38631,0.0764 4.02365,0.25178 1.83311,0.50447 3.07181,1.78191 3.42981,3.5371 0.13026,0.63859 0.12395,1.97291 -0.013,2.76168 -0.6864,3.95217 -3.97161,7.83639 -7.381,8.72681 -0.81635,0.2132 -1.83637,0.27528 -2.76891,0.16852 -0.93539,-0.10709 -1.37831,-0.22957 -2.0253,-0.56008 -0.86037,-0.4395 -1.44806,-1.02795 -1.88907,-1.8915 -0.2847,-0.55746 -0.41865,-0.70192 -0.81556,-0.87962 -0.81908,-0.36672 -1.5993,-0.43604 -1.98357,-0.17626 -0.15383,0.104 -0.16438,0.1435 -0.13056,0.48885 0.0992,1.01295 1.06039,2.26281 2.21277,2.87735 0.70724,0.37717 1.66904,0.70809 2.37009,0.81549 0.27549,0.0422 0.57602,0.0883 0.66785,0.10242 0.49363,0.076 2.55218,0.039 3.1854,-0.0572 z m 15.12409,-2.0797 c 1.74539,-0.36509 3.86832,-1.46071 5.61955,-2.9002 0.31568,-0.25949 0.93268,-0.69961 1.3711,-0.97806 0.43843,-0.27844 0.91647,-0.59001 1.06231,-0.69237 l 0.26516,-0.18611 0.226,0.22445 c 0.69282,0.68805 1.62486,2.2075 1.71452,2.79508 0.0383,0.25093 0.02,0.31193 -0.15398,0.51286 -0.38139,0.44054 -0.88171,0.22008 -1.28454,-0.56601 -0.16271,-0.31752 -0.22808,-0.54086 -0.23997,-0.81985 l -0.0163,-0.38344 -0.3419,-0.0216 c -0.63193,-0.04 -1.36816,0.42999 -1.64955,1.053 -0.18044,0.39948 -0.20287,0.78721 -0.062,1.07065 0.14599,0.29365 0.64217,0.71558 1.01069,0.85942 0.43775,0.17088 1.24971,0.22782 1.70273,0.11939 1.19144,-0.28514 2.22991,-1.37533 2.47442,-2.59762 0.17612,-0.88037 -0.22255,-1.92073 -1.07065,-2.79395 l -0.51509,-0.53035 0.16216,-0.19457 c 0.23318,-0.27976 0.18582,-0.48393 -0.1185,-0.51087 -0.21715,-0.0192 -0.51467,0.16718 -3.06009,1.91727 -1.55075,1.06621 -3.17281,2.13915 -3.60458,2.3843 -2.7495,1.56109 -4.41226,1.69888 -5.18649,0.42978 l -0.11011,-0.18049 0.61969,-0.22783 c 2.59943,-0.95566 4.49468,-2.33116 4.37227,-3.17325 -0.045,-0.30927 -0.51747,-0.78949 -0.88011,-0.89449 -0.71785,-0.20784 -1.73913,-0.005 -2.86694,0.56957 -1.92973,0.98301 -3.37804,2.6705 -3.38019,3.93844 -3.5e-4,0.20757 0.031,0.46411 0.0697,0.57008 0.19045,0.52159 0.8282,1.04118 1.52328,1.24107 0.48492,0.13946 1.59433,0.12326 2.3474,-0.0343 z m -1.84762,-2.90054 c 0.0594,-0.51141 0.29811,-0.96662 0.74751,-1.42525 0.46573,-0.4753 1.26174,-0.92782 1.72589,-0.98115 0.6129,-0.0704 0.75622,0.44746 0.31856,1.15113 -0.11506,0.185 -0.32518,0.4193 -0.46693,0.52066 -0.26533,0.18973 -2.14784,1.07261 -2.28652,1.07235 -0.0537,-9e-5 -0.0656,-0.1043 -0.0385,-0.33774 z m -16.50502,2.31344 c 0.094,-0.0763 0.24721,-0.27955 0.34047,-0.45167 0.0933,-0.17212 1.37112,-2.15432 2.83967,-4.4049 2.92548,-4.48334 3.50255,-5.39256 3.90083,-6.14613 0.30664,-0.5802 0.31449,-0.62771 0.13466,-0.81462 -0.38752,-0.40277 -2.09682,0.11382 -2.83072,0.8555 -0.20481,0.20698 -0.63106,0.95947 -1.62713,2.87253 -1.96944,3.78247 -2.53468,4.89052 -3.08445,6.04649 -0.41986,0.88281 -0.49237,1.08802 -0.49289,1.39485 -10e-4,0.63627 0.42195,0.97072 0.81956,0.64795 z m 48.79627,-0.0941 c 0.27079,-0.13798 1.25567,-0.77027 2.18861,-1.40512 0.93294,-0.63483 1.78902,-1.18755 1.90239,-1.22825 l 0.20613,-0.074 -8.7e-4,0.51271 c -10e-4,0.66718 0.18673,1.19837 0.57726,1.63232 0.45602,0.50671 0.82245,0.64196 1.82371,0.67313 0.98632,0.0307 1.62799,-0.10953 2.92528,-0.63933 1.95855,-0.79986 4.3636,-2.35356 4.28212,-2.76631 -0.0464,-0.23495 -0.35689,-0.12022 -1.2156,0.44914 -1.84949,1.22629 -3.35951,1.79095 -4.58664,1.71513 -0.39434,-0.0244 -0.56407,-0.0683 -0.72579,-0.18805 -0.3719,-0.27529 -0.43325,-0.48653 -0.47117,-1.62236 -0.0329,-0.98413 -0.0411,-1.03259 -0.1973,-1.1639 -0.13409,-0.11271 -0.22295,-0.12934 -0.50086,-0.0937 -0.91671,0.11738 -1.98322,0.63735 -3.73993,1.82339 -1.07433,0.72534 -1.37876,0.87379 -1.37841,0.67221 8e-5,-0.0493 0.36652,-0.64798 0.81429,-1.33039 1.01885,-1.5527 1.22469,-1.99544 1.02445,-2.20355 -0.30309,-0.31503 -1.46306,0.29086 -3.25643,1.70093 -0.81609,0.64167 -0.98547,0.82065 -0.98585,1.04174 -3.4e-4,0.20263 0.28325,0.0978 0.9024,-0.33345 0.56349,-0.39251 0.95687,-0.55459 0.88632,-0.36516 -0.021,0.0565 -0.31655,0.53543 -0.65668,1.06427 -0.93221,1.44945 -1.21437,2.12775 -0.98637,2.37121 0.13101,0.13989 0.6157,0.0393 1.16894,-0.24255 z m -8.36112,-3.15272 c 0.0666,-0.076 0.10612,-0.13819 0.0878,-0.13822 -0.0184,-3e-5 -0.0879,0.0621 -0.15455,0.1381 -0.0666,0.076 -0.10611,0.13818 -0.0877,0.13821 0.0184,3e-5 0.0879,-0.0621 0.15454,-0.13809 z m -2.71699,-4.7447 c 0.34478,-0.10536 0.8221,-0.54279 0.82246,-0.75372 9e-5,-0.0539 -0.13608,-0.26384 -0.30259,-0.4666 -0.49748,-0.60577 -0.63335,-1.46026 -0.3064,-1.92694 0.0666,-0.095 0.19268,-0.27402 0.28026,-0.3978 0.41338,-0.58423 -0.44591,-0.30143 -1.1087,0.36488 -0.50467,0.50736 -0.71354,0.97027 -0.75177,1.66619 -0.0273,0.49636 -0.0107,0.60979 0.13889,0.94977 0.17532,0.39848 0.47662,0.66625 0.75079,0.66727 0.076,1.4e-4 0.29067,-0.0461 0.47706,-0.10305 z m -74.66768,-9.33977 c 3.27851,-0.29251 6.53706,-1.0433 9.55881,-2.20238 4.14267,-1.58906 8.06842,-3.94459 11.02241,-6.61365 0.40129,-0.36259 1.06129,-0.91707 1.46665,-1.23219 1.89415,-1.47242 3.68628,-3.02177 5.95288,-5.14642 1.51607,-1.42113 6.00593,-6.07323 7.87328,-8.15778 7.0446,-7.86401 14.42165,-17.14096 22.82706,-28.706 4.11692,-5.66449 6.80619,-9.50551 11.80469,-16.86034 l 0.51659,-0.76013 -0.0334,-0.41859 c -0.0437,-0.5482 -0.31655,-1.31992 -0.55245,-1.56256 l -0.18761,-0.19297 -1.13616,0.31058 c -3.43917,0.94013 -8.11329,2.04552 -11.82872,2.79741 -5.53079,1.11926 -10.35845,1.8076 -15.43502,2.20076 -1.88294,0.14583 -7.09496,0.19868 -8.79925,0.0892 -3.48227,-0.22363 -6.74825,-0.82282 -8.2486,-1.5133 -0.4328,-0.19918 -0.55226,-0.2076 -0.83922,-0.0591 -0.29674,0.15352 -0.98347,0.85914 -0.98373,1.01079 -1.1e-4,0.0686 0.12278,0.37923 0.27309,0.69023 2.50888,5.19079 8.2206,8.63937 15.90897,9.6054 1.37841,0.17319 4.21361,0.18068 5.61135,0.0148 3.26685,-0.38764 7.18405,-1.02174 10.65358,-1.72457 0.64093,-0.12983 1.17537,-0.22562 1.18764,-0.21287 0.0412,0.0429 -3.23208,4.29215 -5.35546,6.95224 -13.14049,16.46192 -24.45708,27.54684 -32.20562,31.54633 -2.93633,1.51562 -8.04967,3.33261 -11.64242,4.13707 -2.27421,0.50922 -3.97464,0.7141 -5.9289,0.71437 -3.18834,4.3e-4 -5.06232,-0.56373 -7.49729,-2.25706 -1.73167,-1.20423 -2.88702,-2.5077 -3.58863,-4.0487 -0.41193,-0.90474 -0.56428,-1.5607 -0.6034,-2.59788 -0.0544,-1.44326 0.18783,-2.50769 0.92082,-4.04581 0.73093,-1.53383 1.77444,-2.9691 3.31614,-4.56116 3.30908,-3.41713 7.40328,-5.29645 13.0702,-5.99945 1.19919,-0.14877 4.95222,-0.20382 6.42376,-0.0942 3.48001,0.25915 6.9509,0.90863 10.32616,1.93221 l 1.02061,0.30952 0.28175,-0.14747 c 0.72816,-0.3811 1.1848,-0.86005 1.18545,-1.24335 5.3e-4,-0.3151 -1.33923,-2.32172 -2.60683,-3.90439 -0.73825,-0.92173 -2.38529,-2.62728 -3.28186,-3.39844 -4.01682,-3.45493 -8.69576,-5.55633 -14.12881,-6.3455 -1.9434,-0.28229 -2.59704,-0.32467 -5.0764,-0.32918 -3.05227,-0.006 -4.99127,0.1711 -7.79159,0.70985 -7.67271,1.47615 -14.39649,5.30605 -18.95319,10.79587 -2.97158,3.58009 -5.0867,7.96766 -5.93788,12.31745 -0.14989,0.76599 -0.21612,2.46137 -0.15689,4.01626 0.31277,8.21057 3.85922,14.8029 10.34762,19.23476 1.88889,1.29019 3.86685,2.31929 6.00327,3.12342 2.51755,0.94757 6.54186,1.72404 9.96449,1.92259 1.33639,0.0775 3.85153,0.032 5.28203,-0.0957 z m 77.30806,0.17378 c 3.92135,-0.31122 7.90464,-1.31212 11.52827,-2.89676 2.27539,-0.99505 4.22564,-2.09217 6.51943,-3.66752 2.6374,-1.81134 4.10507,-3.024 5.89197,-4.86823 2.46468,-2.54374 4.12904,-4.9267 5.79521,-8.2973 l 0.4613,-0.9332 -0.004,-0.79567 c -0.007,-1.29704 -0.31405,-2.23196 -0.93231,-2.83971 -0.3772,-0.37078 -0.61796,-0.5043 -1.12209,-0.62227 l -0.30775,-0.072 -1.05217,0.71832 c -1.91311,1.30609 -2.93676,1.87397 -7.60472,4.21876 -2.82957,1.42135 -7.82303,3.19289 -11.12924,3.94837 -2.46213,0.5626 -4.23201,0.78254 -6.28072,0.78049 -2.17444,-0.002 -3.60528,-0.25558 -5.05319,-0.89494 -2.0012,-0.88367 -4.05329,-2.47813 -5.16734,-4.01499 -0.51609,-0.71197 -1.08082,-1.92016 -1.26807,-2.71295 -0.20946,-0.88685 -0.20322,-2.29132 0.0143,-3.21721 0.502,-2.13687 1.89797,-4.42597 4.07615,-6.68406 3.04026,-3.15178 7.0276,-5.08667 12.04711,-5.84596 2.47697,-0.37468 6.2672,-0.40865 9.15203,-0.082 2.86593,0.32449 6.15013,1.0069 8.75935,1.82009 l 0.91271,0.28445 0.34664,-0.19459 c 0.75861,-0.42584 1.24015,-1.07523 1.05989,-1.42933 -0.14517,-0.28516 -0.87602,-1.39671 -1.42118,-2.1615 -4.6192,-6.47997 -11.21776,-10.3657 -19.32159,-11.37797 -3.05483,-0.38158 -6.75407,-0.32469 -10.12079,0.15565 -1.32873,0.18957 -3.43696,0.61889 -4.67776,0.95259 -3.69234,0.99299 -7.76092,2.91052 -10.78055,5.0809 -5.85626,4.20922 -9.91649,10.34822 -11.38178,17.20908 -0.18444,0.86359 -0.18889,0.93388 -0.18985,2.99457 -10e-4,2.73547 0.17635,4.36292 0.72463,6.63929 1.60072,6.64599 5.74533,11.89371 12.12649,15.35401 2.36525,1.2826 4.58453,2.0835 7.49815,2.70595 3.58278,0.76539 7.38044,1.02516 10.90179,0.74569 z"
     style="fill:#000000;stroke-width:0.06798437" />
</svg>
